<?xml version="1.0" encoding="UTF-8"?>
<svg xmlns="http://www.w3.org/2000/svg" version="1.1" viewBox="0 0 800 800">
  <defs>
    <style>
      .cls-1 {
        fill: #659c35;
      }

      .cls-2 {
        fill: #23a24d;
      }

      .cls-3 {
        fill: #bf4d90;
      }

      .cls-4 {
        fill: none;
      }

      .cls-5 {
        fill: #57abc1;
      }

      .cls-6 {
        fill: #fc3952;
      }

      .cls-7 {
        fill: #1081e0;
      }

      .cls-8 {
        fill: #d75a4a;
      }

      .cls-9 {
        fill: #ebba16;
      }

      .cls-10 {
        fill: #292d32;
      }

      .cls-11 {
        fill: #eb7937;
      }
    </style>
  </defs>
  <!-- Generator: Adobe Illustrator 28.7.4, SVG Export Plug-In . SVG Version: 1.2.0 Build 166)  -->
  <g>
    <g id="Background">
      <path id="Icon" class="cls-10" d="M700,250.6667v196c0,11.3333-11,19.3333-21.6667,16l-131-40.6667c-36-11-74.6667-1.6667-101,24.6667-26.6667,26.6667-36.3333,65.6667-25,101.6667l40.3333,130c3.3333,10.6667-4.6667,21.6667-16,21.6667h-195c-115,0-184-68.6666-184-184V250.6667c0-115.3333,69-184,184-184h265.3333c115,0,184,68.6667,184,184Z"/>
      <path id="Mouse" class="cls-10" d="M731.99,627.9499l-54.3333,18.3334c-15,5-27,16.6667-32,32l-18.3333,54.3334c-15.6666,47-81.6667,46-96.3333-1l-61.6666-198.3333c-12-39.3333,24.3333-76,63.3333-63.6667l198.6666,61.6667c46.6667,14.6667,47.3333,81,.6667,96.6666Z"/>
    </g>
    <g id="DNA">
      <g id="bases">
        <path class="cls-4" d="M173.4214,407.1454l134.9595,134.9596c4.8071-2.8229,9.3466-6.3016,13.5822-10.5371,1.7283-1.7283,3.3292-3.5079,4.8143-5.3342l-154.0031-154.0031c-1.5432,10.8781-1.1358,22.5829.6472,34.9149Z"/>
        <path class="cls-4" d="M299.114,319.9365c-.1656-.0457-.3297-.0881-.4952-.1335l.6599.6599c-.0541-.1754-.1108-.3511-.1647-.5264Z"/>
        <path class="cls-4" d="M192.3356,331.9851c-4.0703,4.0703-7.4464,8.4195-10.2093,13.0186l157.1208,157.1208c2.7615-9.6632,3.6255-20.1174,3.0722-31.1955l-144.1459-144.1459c-2.0015,1.5963-3.9527,3.3168-5.8378,5.202Z"/>
        <path class="cls-4" d="M199.5202,497.2858c1.2358,3.4934,2.4749,7.0001,3.7087,10.5137l42.5237,42.5237c12.4205,1.8683,24.2152,2.368,35.1801.9124l-95.6462-95.6462c4.2936,13.5936,9.233,27.5601,14.2338,41.6965Z"/>
        <path class="cls-4" d="M194.3666,564.4346c-2.6017-.7996-5.2077-1.6271-7.8149-2.4656l9.7328,9.7328c-.608-2.4067-1.2457-4.8281-1.9178-7.2672Z"/>
        <path class="cls-4" d="M253.9161,311.6793c-11.1605-.636-21.6942.1495-31.4368,2.8309l112.0037,112.0037c-4.3994-16.2661-10.1902-33.2418-16.2781-50.5458l-64.2888-64.2888Z"/>
        <path class="cls-4" d="M202.8096,614.8057l-72.1442-72.1442c-17.0383-5.9204-33.6982-11.3884-49.6101-15.3424l117.5695,117.5695c3.1172-9.3027,4.3636-19.382,4.1848-30.0829Z"/>
        <path class="cls-4" d="M547.0308,143.1335l59.2615,59.2615c11.4526.9254,22.274.4301,32.298-1.9698l-108.3395-108.3395c4.6562,16.4626,10.6191,33.6072,16.7801,51.0478Z"/>
        <path class="cls-4" d="M182.3193,671.2115c1.0226-1.0226,1.9866-2.0689,2.9233-3.1262l-116.1574-116.1574c2.3429,16.6901,6.3718,32.1359,11.9872,46.2549l85.0388,85.0388c5.7896-3.0519,11.208-7.01,16.2081-12.0101Z"/>
        <path class="cls-4" d="M365.3934,174.0359l156.1921,156.1921c3.4845-2.3633,6.8173-5.0999,9.9793-8.2619,2.7657-2.7657,5.1948-5.6667,7.3461-8.6804l-140.9325-140.9325c-11.5479-1.0172-22.4695-.6285-32.585,1.6827Z"/>
        <path class="cls-4" d="M663.6279,188.884c2.6241-1.9547,5.1559-4.137,7.5877-6.5687,3.5003-3.5003,6.483-7.2084,9.009-11.1023l-94.595-94.595c-13.2897-4.1899-27.6112-7.0918-42.9041-8.6364l120.9023,120.9023Z"/>
        <path class="cls-4" d="M331.9802,192.3405c-3.3217,3.3217-6.1807,6.8292-8.6227,10.5062l138.7661,138.766c11.8454,1.3097,23.0619,1.2194,33.4655-.8022l-155.4505-155.4505c-2.8273,2.0599-5.5516,4.3738-8.1583,6.9805Z"/>
        <path class="cls-4" d="M312.4611,262.7968l50.9937,50.9937c.9364.3311,1.8746.6622,2.8093.9929,16.6494,5.8894,33.0629,11.6936,48.9087,16.4574l-102.1757-102.1757c-1.9373,10.4893-1.931,21.7979-.536,33.7318Z"/>
        <path class="cls-4" d="M495.2848,198.813c-17.512-6.1931-34.7485-12.2496-51.3204-17.0527l106.0714,106.0714c2.2291-10.2004,2.5182-21.2153,1.4158-32.8519l-56.1669-56.1669Z"/>
        <path class="cls-9" d="M81.0724,598.1829c15.8541,39.8628,44.3805,69.1255,83.4989,85.7963.5129-.2535,1.0327-.4902,1.5399-.7576l-85.0388-85.0388Z"/>
        <path class="cls-7" d="M185.2427,668.0854c6.2178-7.0179,10.5651-14.7899,13.3821-23.1967l-117.5695-117.5695c-4.8281-1.1998-9.5783-2.2407-14.258-3.131.2787,9.5879,1.0391,18.8438,2.288,27.7398l116.1574,116.1574Z"/>
        <path class="cls-1" d="M196.2845,571.7017l-9.7328-9.7328c-12.8619-4.1365-25.7693-8.691-38.5153-13.1993-5.8241-2.0602-11.6187-4.1093-17.371-6.108l72.1442,72.1442c-.2254-13.4903-2.7-27.9623-6.5251-43.104Z"/>
        <path class="cls-6" d="M185.2864,455.5894l95.6462,95.6462c9.8737-1.3107,19.0726-4.212,27.4482-9.1306l-134.9595-134.9596c2.2141,15.3138,6.5422,31.5919,11.8651,48.444Z"/>
        <path class="cls-2" d="M172.7742,372.2305l154.0031,154.0031c5.9427-7.3082,9.9774-15.3872,12.4698-24.1091l-157.1208-157.1208c-4.9886,8.3041-7.9623,17.4298-9.3521,27.2268Z"/>
        <path class="cls-3" d="M198.1735,326.7831l144.1459,144.1459c-.6957-13.9318-3.6259-28.8475-7.8364-44.4153l-112.0037-112.0037c-8.791,2.4195-16.9338,6.3932-24.3059,12.273Z"/>
        <path class="cls-5" d="M314.7795,366.2662c-5.3611-15.1552-10.7934-30.5395-15.5009-45.8034l-.6599-.6599c-15.6603-4.2928-30.6739-7.3242-44.7026-8.1237l64.2888,64.2888c-1.1341-3.2235-2.278-6.4579-3.4255-9.7018Z"/>
        <path class="cls-11" d="M319.9327,299.1181c14.4952,4.4552,29.101,9.5745,43.522,14.6724l-50.9937-50.9937c1.3534,11.5778,4.0045,23.74,7.4716,36.3213Z"/>
        <path class="cls-9" d="M312.9971,229.0651l102.1757,102.1757c16.381,4.9247,32.1547,8.7358,46.9508,10.3719l-138.7661-138.766c-5.3004,7.9808-8.6152,16.7689-10.3604,26.2184Z"/>
        <path class="cls-7" d="M340.1385,185.36l155.4505,155.4505c9.3738-1.8215,18.0853-5.217,25.9965-10.5825l-156.1921-156.1921c-9.1183,2.0833-17.5802,5.7326-25.2548,11.324Z"/>
        <path class="cls-1" d="M397.9784,172.3532l140.9325,140.9325c5.5254-7.7402,9.1169-16.265,11.1249-25.454l-106.0714-106.0714c-16.0735-4.6586-31.52-8.1328-45.986-9.4071Z"/>
        <path class="cls-6" d="M548.7656,148.0404c5.422,15.3273,10.9195,30.8896,15.6638,46.3243,14.6038,4.0244,28.649,6.9627,41.8629,8.0303l-59.2615-59.2615c.577,1.6334,1.1553,3.2687,1.7348,4.9069Z"/>
        <path class="cls-2" d="M638.5903,200.4252c9.0416-2.1646,17.4347-5.8779,25.0377-11.5413l-120.9023-120.9023c-6.0305-.6091-12.2162-1.0005-18.5438-1.1844,1.5616,8.2071,3.6255,16.6494,6.069,25.2885l108.3395,108.3395Z"/>
        <path class="cls-3" d="M683.9878,164.5764c-18.3961-43.173-52.1145-73.3788-98.3582-87.9584l94.595,94.595c1.3972-2.1539,2.642-4.3699,3.7632-6.6366Z"/>
        <path class="cls-5" d="M543.6111,215.1832c-15.4349-4.7439-30.9977-10.241-46.3256-15.6626-.6675-.2361-1.334-.4718-2.0007-.7076l56.1669,56.1669c-1.1946-12.6098-4.0246-25.95-7.8406-39.7967Z"/>
        <path class="cls-11" d="M215.1857,543.6161c10.5128,2.897,20.7347,5.2281,30.5669,6.7071l-42.5237-42.5237c4.1802,11.9041,8.2935,23.8979,11.9568,35.8166Z"/>
      </g>
      <path id="backbone" class="cls-8" d="M680.2246,171.213c-2.5259,3.8939-5.5087,7.602-9.009,11.1023-2.4318,2.4318-4.9636,4.6141-7.5877,6.5687-7.603,5.6634-15.9961,9.3766-25.0377,11.5413-10.0239,2.3999-20.8454,2.8951-32.298,1.9698-13.2139-1.0676-27.2592-4.0059-41.8629-8.0303-4.7443-15.4346-10.2418-30.9969-15.6638-46.3243-.5795-1.6382-1.1578-3.2735-1.7348-4.9069-6.161-17.4406-12.1238-34.5852-16.7801-51.0478-2.4435-8.6392-4.5074-17.0814-6.069-25.2885-2.7034-.0786-5.4252-.1305-8.1818-.1305h-18.0724c4.9141,29.0781,15.8372,59.9892,26.4537,89.9996,3.3756,9.5422,6.7222,19.0065,9.8627,28.3316-9.3258-3.1404-18.7905-6.4871-28.3334-9.8626-33.8926-11.9882-68.9409-24.3854-101.1921-28.0558-38.6998-4.4036-68.4756,4.4197-91.0275,26.9716s-31.3734,52.3259-26.9689,91.0248c.977,8.5848,2.5865,17.3716,4.6279,26.2783-8.9061-2.0414-17.6926-3.6505-26.277-4.6275-38.7007-4.4044-68.4747,4.417-91.0266,26.9689s-31.3734,52.3259-26.9689,91.0248c3.6713,32.2521,16.0685,67.2986,28.0575,101.1903,3.3764,9.5446,6.724,19.011,9.8651,28.3385-9.3273-3.1407-18.7933-6.4881-28.3376-9.8642-30.0095-10.6152-60.919-21.5376-89.9957-26.4521v18.0669c0,2.7591.0519,5.4828.1306,8.1882,4.6797.8903,9.4299,1.9312,14.258,3.131,15.9119,3.954,32.5718,9.422,49.6101,15.3424,5.7524,1.9988,11.5469,4.0479,17.371,6.108,12.7459,4.5084,25.6534,9.0628,38.5153,13.1993,2.6072.8385,5.2132,1.666,7.8149,2.4656.6722,2.4391,1.3099,4.8605,1.9178,7.2672,3.8251,15.1417,6.2997,29.6137,6.5251,43.104.1788,10.7009-1.0676,20.7802-4.1848,30.0829-2.817,8.4068-7.1644,16.1788-13.3821,23.1967-.9367,1.0573-1.9007,2.1035-2.9233,3.1262-5.0001,5.0001-10.4186,8.9583-16.2081,12.0101-.5072.2674-1.027.5041-1.5399.7576,9.7344,4.1484,20.1216,7.5205,31.1354,10.0787,1.6671-1.457,3.3079-2.9628,4.902-4.557,22.551-22.551,31.3734-52.3259,26.9689-91.0248-.9773-8.5846-2.5865-17.371-4.628-26.2772,8.9064,2.0414,17.6931,3.6506,26.278,4.6273,38.699,4.4045,68.4738-4.4178,91.0248-26.9689,22.5519-22.5519,31.3734-52.3259,26.9689-91.0266-3.6703-32.2513-16.0675-67.2977-28.0575-101.1904-3.3763-9.544-6.7237-19.0101-9.8646-28.337,9.3276,3.1408,18.7941,6.4882,28.3389,9.8646,33.8926,11.9882,68.9391,24.3871,101.1912,28.0566,38.699,4.4045,68.4738-4.4178,91.0248-26.9689,22.551-22.5511,31.3734-52.3259,26.9689-91.0248-.9772-8.5864-2.587-17.3751-4.629-26.2834,8.9083,2.042,17.697,3.6517,26.2834,4.629,38.6999,4.4036,68.4756-4.4197,91.0275-26.9716,1.5932-1.5932,3.0982-3.233,4.5544-4.899-2.5577-11.0146-5.9262-21.4006-10.0717-31.1293-1.1212,2.2667-2.366,4.4827-3.7632,6.6366ZM334.483,426.5138c4.2104,15.5677,7.1406,30.4835,7.8364,44.4153.5533,11.0781-.3107,21.5323-3.0722,31.1955-2.4924,8.7219-6.5271,16.8009-12.4698,24.1091-1.4851,1.8263-3.0859,3.6059-4.8143,5.3342-4.2355,4.2355-8.7751,7.7142-13.5822,10.5371-8.3757,4.9186-17.5745,7.8199-27.4482,9.1306-10.9649,1.4556-22.7596.9559-35.1801-.9124-9.8322-1.479-20.0541-3.8101-30.5669-6.7071-3.6633-11.9186-7.7766-23.9125-11.9568-35.8166-1.2338-3.5135-2.4729-7.0203-3.7087-10.5137-5.0008-14.1364-9.9401-28.1028-14.2338-41.6965-5.3228-16.8521-9.6509-33.1302-11.8651-48.444-1.783-12.332-2.1903-24.0367-.6472-34.9149,1.3898-9.797,4.3635-18.9227,9.3521-27.2268,2.7629-4.5991,6.139-8.9483,10.2093-13.0186,1.8851-1.8851,3.8364-3.6057,5.8378-5.202,7.3721-5.8798,15.5149-9.8535,24.3059-12.273,9.7426-2.6813,20.2763-3.4669,31.4368-2.8309,14.0287.7995,29.0423,3.8309,44.7026,8.1237.1655.0453.3295.0878.4952.1335.0539.1753.1106.351.1647.5264,4.7075,15.2639,10.1397,30.6483,15.5009,45.8034,1.1475,3.2438,2.2914,6.4783,3.4255,9.7018,6.0879,17.304,11.8787,34.2797,16.2781,50.5458ZM550.0358,287.8317c-2.0081,9.189-5.5995,17.7137-11.1249,25.454-2.1513,3.0137-4.5803,5.9147-7.3461,8.6804-3.162,3.162-6.4948,5.8986-9.9793,8.2619-7.9111,5.3655-16.6226,8.761-25.9965,10.5825-10.4036,2.0216-21.6201,2.1119-33.4655.8022-14.7961-1.636-30.5698-5.4471-46.9508-10.3719-15.8458-4.7638-32.2593-10.568-48.9087-16.4574-.9348-.3307-1.8729-.6619-2.8093-.9929-14.421-5.0978-29.0269-10.2172-43.522-14.6724-3.4671-12.5813-6.1182-24.7435-7.4716-36.3213-1.395-11.9338-1.4012-23.2425.536-33.7318,1.7452-9.4495,5.0601-18.2375,10.3604-26.2184,2.442-3.677,5.3011-7.1845,8.6227-10.5062,2.6067-2.6067,5.3311-4.9207,8.1583-6.9805,7.6746-5.5914,16.1365-9.2407,25.2548-11.324,10.1155-2.3112,21.0372-2.7,32.585-1.6827,14.466,1.2743,29.9125,4.7485,45.986,9.4071,16.5719,4.803,33.8083,10.8596,51.3204,17.0527.6667.2358,1.3332.4715,2.0007.7076,15.3279,5.4216,30.8907,10.9187,46.3256,15.6626,3.816,13.8467,6.646,27.1869,7.8406,39.7967,1.1024,11.6365.8132,22.6514-1.4158,32.8519Z"/>
    </g>
    <metadata>
      <sfw xmlns="http://ns.adobe.com/SaveForWeb/1.0/">
        <slices/>
        <sliceSourceBounds x="66.67" y="32.63" width="699.99" height="700.7" bottomLeftOrigin="true"/>
      </sfw>
    </metadata>
  </g>
</svg>